# xmcd
#
# Track frame offsets: 
#        150
#        11920
#        23677
#        36525
#        49347
#        60085
#        71207
#        86525
#        98165
#        110229
#        121725
#        134615
#        148067
#        157015
#        168835
#        184615
#        196277
#        210665
#        222640
#        237985
#
# Disc length: 3340 seconds
#
# Revision: 6
# Processed by: cddbd v1.5.2PL0 Copyright (c) Steve Scherf et al.
# Submitted via: ExactAudioCopy v1.0b1
#
DISCID=2c0d0a14
DTITLE=Sonny Boy Williamson II - His Best
DYEAR=1997
DGENRE=Blues
TTITLE0=Good Evening Everybody (mono)
TTITLE1=Don't Start Me To Talkin' (mono)
TTITLE2=All My Love In Vain (mono)
TTITLE3=Keep It To Yourself (mono)
TTITLE4=Fattening Frogs For Snakes (mono)
TTITLE5=I Don't Know (mono)
TTITLE6=Cross My Heart (mono)
TTITLE7=Born Blind (mono)
TTITLE8=Ninety Nine (mono)
TTITLE9=Your Funeral And My Trial (mono)
TTITLE10=Keep Your Hands Out Of My Pocket (mono)
TTITLE11=Sad To Be Alone (mono)
TTITLE12=Checkin' Up On My Baby (mono)
TTITLE13=Down Child (mono)
TTITLE14=Nine Below Zero (mono)
TTITLE15=Bye Bye Bird (mono)
TTITLE16=Help Me (mono)
TTITLE17=Bring It On Home (mono)
TTITLE18=My Younger Days (mono)
TTITLE19=One Way Out (1964) (mono)
EXTD=YEAR: 1997 ID3G: 0
EXTT0=
EXTT1=
EXTT2=
EXTT3=
EXTT4=
EXTT5=
EXTT6=
EXTT7=
EXTT8=
EXTT9=
EXTT10=
EXTT11=
EXTT12=
EXTT13=
EXTT14=
EXTT15=
EXTT16=
EXTT17=
EXTT18=
EXTT19=
PLAYORDER=
